HIERARCHY
ROOT Hips
{
	OFFSET	0.00	0.00	0.00
	CHANNELS 6 Xposition Yposition Zposition Zrotation Xrotation Yrotation
	JOINT LeftUpLeg
	{
		OFFSET	 0.126116	-0.014019	-0.065224
		CHANNELS 3 Zrotation Xrotation Yrotation
		JOINT LeftLeg
		{
			OFFSET	 0.000000	 0.000000	 0.569914
			CHANNELS 3 Zrotation Xrotation Yrotation
			JOINT LeftFoot
			{
				OFFSET	 0.000000	 0.000000	 0.544423
				CHANNELS 3 Zrotation Xrotation Yrotation
				JOINT LeftToeBase
				{
					OFFSET	 0.000000	 0.000000	 0.207117
					CHANNELS 3 Zrotation Xrotation Yrotation
					End Site
					{
						OFFSET	 0.000000	 0.000000	 0.207117
					}
				}
			}
		}
	}
	JOINT RightUpLeg
	{
		OFFSET	-0.124023	-0.008373	-0.065224
		CHANNELS 3 Zrotation Xrotation Yrotation
		JOINT RightLeg
		{
			OFFSET	 0.000000	 0.000000	 0.570047
			CHANNELS 3 Zrotation Xrotation Yrotation
			JOINT RightFoot
			{
				OFFSET	 0.000000	 0.000000	 0.544354
				CHANNELS 3 Zrotation Xrotation Yrotation
				JOINT RightToeBase
				{
					OFFSET	 0.000000	 0.000000	 0.207540
					CHANNELS 3 Zrotation Xrotation Yrotation
					End Site
					{
						OFFSET	 0.000000	 0.000000	 0.207540
					}
				}
			}
		}
	}
	JOINT Spine
	{
		OFFSET	 0.000184	-0.007763	 0.117403
		CHANNELS 3 Zrotation Xrotation Yrotation
		JOINT Spine1
		{
			OFFSET	 0.000000	 0.000000	 0.137269
			CHANNELS 3 Zrotation Xrotation Yrotation
			JOINT Spine2
			{
				OFFSET	 0.000000	 0.000000	 0.156879
				CHANNELS 3 Zrotation Xrotation Yrotation
				JOINT LeftShoulder
				{
					OFFSET	 0.080501	-0.002496	 0.160144
					CHANNELS 3 Zrotation Xrotation Yrotation
					JOINT LeftArm
					{
						OFFSET	 0.000000	 0.000000	 0.164363
						CHANNELS 3 Zrotation Xrotation Yrotation
						JOINT LeftForeArm
						{
							OFFSET	 0.000000	 0.000000	 0.364576
							CHANNELS 3 Zrotation Xrotation Yrotation
							JOINT LeftHand
							{
								OFFSET	 0.000000	 0.000000	 0.360812
								CHANNELS 3 Zrotation Xrotation Yrotation
								JOINT LeftHandIndex1
								{
									OFFSET	 0.000000	 0.000000	 0.086006
									CHANNELS 3 Zrotation Xrotation Yrotation
									JOINT LeftHandIndex2
									{
										OFFSET	 0.000000	 0.000000	 0.047236
										CHANNELS 3 Zrotation Xrotation Yrotation
										JOINT LeftHandIndex3
										{
											OFFSET	-0.004284	-0.000551	 0.038166
											CHANNELS 3 Zrotation Xrotation Yrotation
											End Site
											{
												OFFSET	-0.004284	-0.000551	 0.038166
											}
										}
									}
								}
							}
						}
					}
				}
				JOINT Neck
				{
					OFFSET	 0.000000	 0.000000	 0.176489
					CHANNELS 3 Zrotation Xrotation Yrotation
					JOINT Head
					{
						OFFSET	 0.000000	-0.001747	 0.077940
						CHANNELS 3 Zrotation Xrotation Yrotation
						End Site
						{
							OFFSET	 0.000000	-0.001747	 0.077940
						}
					}
				}
				JOINT RightShoulder
				{
					OFFSET	-0.080363	 0.000306	 0.159706
					CHANNELS 3 Zrotation Xrotation Yrotation
					JOINT RightArm
					{
						OFFSET	 0.000000	 0.000000	 0.164196
						CHANNELS 3 Zrotation Xrotation Yrotation
						JOINT RightForeArm
						{
							OFFSET	 0.000000	 0.000000	 0.365611
							CHANNELS 3 Zrotation Xrotation Yrotation
							JOINT RightHand
							{
								OFFSET	 0.000000	 0.000000	 0.360648
								CHANNELS 3 Zrotation Xrotation Yrotation
								JOINT RightHandIndex1
								{
									OFFSET	 0.000000	 0.000000	 0.069977
									CHANNELS 3 Zrotation Xrotation Yrotation
									JOINT RightHandIndex2
									{
										OFFSET	 0.000000	 0.000000	 0.052305
										CHANNELS 3 Zrotation Xrotation Yrotation
										JOINT RightHandIndex3
										{
											OFFSET	 0.009002	-0.000782	 0.042196
											CHANNELS 3 Zrotation Xrotation Yrotation
											End Site
											{
												OFFSET	 0.009002	-0.000782	 0.042196
											}
										}
									}
								}
							}
						}
					}
				}
			}
		}
	}
}
MOTION
Frames:    12
Frame Time: 0.03333334
-0.000559	 0.019751	 1.271158	 0.003203	 0.003942	-0.139180	 7.672113	-1.498131	 176.608600	 1.491400	-10.392590	-0.604525	-8.767608	 69.738740	 2.858530	-2.385833	 28.452760	 0.000004	-7.764862	-2.349039	-176.415900	-1.464342	-11.586440	 0.663379	 8.715965	 70.232790	-2.961708	 2.384658	 28.388730	 0.000004	-2.214057	 2.740003	-0.058944	 1.634029	 3.643564	 0.652665	-4.913652	-4.537530	-1.076514	-91.776160	 78.527450	 180.000000	 46.097090	 33.866970	-63.274420	-11.563970	 0.308755	-2.223676	-31.946480	-12.803210	-4.813179	-2.635965	 4.993658	 6.788941	-5.165319	 0.784187	 3.516649	-5.225038	 0.466231	 0.424329	-0.000002	-3.783157	-0.089647	-4.769597	 4.831202	 0.201308	 89.782160	 78.203900	 179.999900	-61.824160	 40.948620	 55.702420	 10.920300	 4.227999	 9.963242	 32.278830	-13.534870	 9.461617	 6.112037	 4.509576	-0.364401	 4.968462	 1.518543	-9.347576	 5.168945	 0.703820	 2.021906
-0.000555	 0.019761	 1.271158	 0.003204	 0.003939	-0.139182	 8.068157	-1.582076	 176.588100	 1.490125	-10.510050	-0.611513	-8.789074	 69.773190	 2.882114	-2.385833	 28.452760	 0.000004	-8.160810	-2.428788	-176.396700	-1.463089	-11.691970	 0.669592	 8.730992	 70.263100	-2.978131	 2.384658	 28.388730	 0.000004	-5.776448	 2.740003	-0.058943	 1.634029	 3.643558	 0.652641	-4.913653	-4.537528	-1.076501	-91.776140	 78.527450	 180.000000	 46.015850	 33.798160	-63.115730	-13.823610	 0.516201	-3.406438	-33.109080	-13.919860	-5.125261	-2.635965	 4.993658	 6.788941	-5.165319	 0.784187	 3.516649	-5.225038	 0.466231	 0.424329	-0.000002	-3.783157	-0.089647	-4.769597	 4.831202	 0.201308	 89.782160	 78.203890	 179.999900	-61.231340	 40.485040	 56.616660	 12.650440	 5.111381	 11.830780	 33.531660	-14.850190	 9.662400	 6.112037	 4.509576	-0.364401	 4.968462	 1.518543	-9.347576	 5.168945	 0.703820	 2.021906
-0.000549	 0.019780	 1.271153	 0.003212	 0.003944	-0.139174	 8.597372	-1.693516	 176.560900	 1.488436	-10.664910	-0.620733	-8.816536	 69.818260	 2.912319	-2.385833	 28.452760	 0.000004	-8.689881	-2.534933	-176.371200	-1.461412	-11.831600	 0.677819	 8.750046	 70.302910	-2.998957	 2.384658	 28.388730	 0.000004	-10.362870	 2.740019	-0.058948	 1.634022	 3.643515	 0.652661	-4.913649	-4.537503	-1.076507	-91.776150	 78.527470	 180.000000	 45.889150	 33.691540	-62.867940	-16.786160	 0.931449	-4.939724	-34.666210	-15.348550	-5.607474	-2.635965	 4.993658	 6.788941	-5.165319	 0.784187	 3.516649	-5.225038	 0.466231	 0.424329	-0.000002	-3.783157	-0.089647	-4.769598	 4.831200	 0.201308	 89.782060	 78.203870	-180.000000	-59.774430	 39.451640	 56.881320	 14.442550	 7.876158	 16.675880	 35.294260	-16.669290	 9.963968	 6.112037	 4.509576	-0.364401	 4.968462	 1.518543	-9.347576	 5.168945	 0.703820	 2.021906
-0.000543	 0.019809	 1.271147	 0.003207	 0.003944	-0.139169	 9.161710	-1.811548	 176.532100	 1.486624	-10.827710	-0.630436	-8.844436	 69.865200	 2.942967	-2.385833	 28.452760	 0.000004	-9.254107	-2.647582	-176.344300	-1.459624	-11.978730	 0.686497	 8.769083	 70.344600	-3.019777	 2.384658	 28.388730	 0.000004	-14.933460	 2.740006	-0.058954	 1.634027	 3.643545	 0.652670	-4.913651	-4.537517	-1.076513	-91.776200	 78.527470	-180.000000	 45.732700	 33.563550	-62.562630	-19.845280	 1.532716	-6.494382	-36.322330	-16.759760	-6.193141	-2.635965	 4.993658	 6.788941	-5.165319	 0.784187	 3.516649	-5.225038	 0.466231	 0.424329	-0.000002	-3.783157	-0.089647	-4.769597	 4.831202	 0.201308	 89.782150	 78.203900	 179.999900	-57.891820	 38.239760	 58.384440	 15.924830	 10.739790	 21.010800	 37.183260	-18.576440	 10.359340	 6.112037	 4.509576	-0.364401	 4.968462	 1.518543	-9.347576	 5.168945	 0.703820	 2.021906
-0.000539	 0.019842	 1.271136	 0.003207	 0.003944	-0.139169	 9.681768	-1.919784	 176.505800	 1.484955	-10.975990	-0.639285	-8.868906	 69.907640	 2.969880	-2.385833	 28.452760	 0.000004	-9.774050	-2.750935	-176.319800	-1.457973	-12.112810	 0.694413	 8.785490	 70.382320	-3.037716	 2.384658	 28.388730	 0.000004	-18.755680	 2.740000	-0.058955	 1.634027	 3.643562	 0.652666	-4.913652	-4.537529	-1.076514	-91.776250	 78.527420	-180.000000	 45.572260	 33.427670	-62.243840	-22.546270	 2.212584	-7.836753	-37.833340	-17.927300	-6.783222	-2.635965	 4.993658	 6.788941	-5.165319	 0.784187	 3.516649	-5.225038	 0.466231	 0.424329	-0.000002	-3.783157	-0.089647	-4.769597	 4.831201	 0.201308	 89.782200	 78.203890	 179.999900	-56.185570	 37.138390	 62.021510	 17.219330	 11.973290	 22.455490	 38.564100	-20.327060	 10.638160	 6.112037	 4.509576	-0.364401	 4.968462	 1.518543	-9.347576	 5.168945	 0.703820	 2.021906
-0.000533	 0.019875	 1.271018	 0.003207	 0.003944	-0.139169	 10.250340	-2.037127	 176.477300	 1.483128	-11.135380	-0.648804	-8.894083	 69.952690	 2.997578	-2.385833	 28.452760	 0.000004	-10.342480	-2.863386	-176.293400	-1.456163	-12.257620	 0.702972	 8.802135	 70.422740	-3.055897	 2.384658	 28.388730	 0.000004	-22.406650	 2.740006	-0.058955	 1.634027	 3.643536	 0.652641	-4.913643	-4.537518	-1.076498	-91.776180	 78.527450	 180.000000	 45.381610	 33.263410	-61.859900	-25.424580	 3.063165	-9.184635	-39.366300	-19.019310	-7.446863	-2.635965	 4.993658	 6.788941	-5.165319	 0.784187	 3.516649	-5.225038	 0.466231	 0.424329	-0.000002	-3.783157	-0.089647	-4.769597	 4.831201	 0.201308	 89.782140	 78.203900	 179.999900	-54.021760	 35.744710	 66.213910	 18.092650	 13.224000	 23.892550	 39.608050	-22.239740	 10.757910	 6.112037	 4.509576	-0.364401	 4.968462	 1.518543	-9.347576	 5.168945	 0.703820	 2.021906
-0.000527	 0.019905	 1.270780	 0.003207	 0.003944	-0.139174	 10.802880	-2.150412	 176.450000	 1.481354	-11.288070	-0.657934	-8.917114	 69.995500	 3.022935	-2.385833	 28.452760	 0.000004	-10.894890	-2.972005	-176.268000	-1.454411	-12.396350	 0.711183	 8.816980	 70.461100	-3.072105	 2.384658	 28.388730	 0.000004	-25.338170	 2.740007	-0.058949	 1.634027	 3.643536	 0.652664	-4.913657	-4.537509	-1.076512	-91.776220	 78.527470	-180.000000	 45.185120	 33.094010	-61.461960	-27.982480	 3.964505	-10.362590	-40.866100	-19.884790	-8.112044	-2.635965	 4.993658	 6.788941	-5.165319	 0.784187	 3.516649	-5.225038	 0.466231	 0.424329	-0.000002	-3.783157	-0.089647	-4.769597	 4.831201	 0.201308	 89.782070	 78.203920	-180.000000	-51.691750	 34.260200	 70.707650	 18.543230	 13.921170	 24.568810	 40.155610	-24.037890	 10.675190	 6.112037	 4.509576	-0.364401	 4.968462	 1.518543	-9.347576	 5.168945	 0.703820	 2.021906
-0.000521	 0.019932	 1.270397	 0.003211	 0.003946	-0.139176	 11.420740	-2.276448	 176.419700	 1.479356	-11.456680	-0.668026	-8.941317	 70.042330	 3.049570	-2.385833	 28.452760	 0.000004	-11.512610	-3.093186	-176.240100	-1.452447	-12.550200	 0.720297	 8.832268	 70.503460	-3.088764	 2.384658	 28.388730	 0.000004	-27.804700	 2.740017	-0.058946	 1.634026	 3.643511	 0.652637	-4.913643	-4.537505	-1.076494	-91.776180	 78.527470	 180.000000	 44.953370	 32.890650	-60.987130	-30.606200	 5.016885	-11.517180	-42.461730	-20.592210	-8.833982	-2.635965	 4.993658	 6.788941	-5.165319	 0.784187	 3.516649	-5.225038	 0.466231	 0.424329	-0.000002	-3.783157	-0.089647	-4.769598	 4.831200	 0.201308	 89.782050	 78.203870	-180.000000	-49.060570	 32.600450	 77.091460	 19.087170	 13.171340	 23.081490	 40.387290	-25.758280	 10.447490	 6.112037	 4.509576	-0.364401	 4.968462	 1.518543	-9.347576	 5.168945	 0.703820	 2.021906
-0.000517	 0.019933	 1.269984	 0.003212	 0.003944	-0.139178	 11.966000	-2.386996	 176.393200	 1.477602	-11.603410	-0.676819	-8.961271	 70.082700	 3.071530	-2.385833	 28.452760	 0.000004	-12.057770	-3.199751	-176.215700	-1.450700	-12.684570	 0.728266	 8.844522	 70.540230	-3.102140	 2.384658	 28.388730	 0.000004	-29.207510	 2.740015	-0.058943	 1.634024	 3.643514	 0.652638	-4.913648	-4.537504	-1.076497	-91.776270	 78.527420	-179.999900	 44.740360	 32.701480	-60.544400	-32.694880	 5.946906	-12.392090	-43.778390	-20.973150	-9.422546	-2.635965	 4.993658	 6.788941	-5.165319	 0.784187	 3.516649	-5.225038	 0.466231	 0.424329	-0.000002	-3.783157	-0.089647	-4.769597	 4.831202	 0.201308	 89.782030	 78.203890	-180.000000	-47.030880	 30.835930	 84.110370	 19.732420	 10.764610	 19.249680	 39.984220	-26.903400	 10.011940	 6.112037	 4.509576	-0.364401	 4.968462	 1.518543	-9.347576	 5.168945	 0.703820	 2.021906
-0.000514	 0.019906	 1.269513	 0.003207	 0.003944	-0.139169	 12.506020	-2.629389	 176.376800	 1.472459	-12.021610	-0.701933	-9.065811	 70.259520	 3.183441	-2.385833	 28.452760	 0.000004	-12.600170	-3.394947	-176.197900	-1.446520	-13.001190	 0.747077	 8.913882	 70.668690	-3.176058	 2.384658	 28.388730	 0.000004	-29.846100	 2.740011	-0.058954	 1.634026	 3.643530	 0.652665	-4.913651	-4.537510	-1.076510	-91.776200	 78.527450	-180.000000	 44.525040	 32.505610	-60.087200	-34.566880	 6.848474	-13.137640	-44.999230	-21.117970	-9.942396	-2.635965	 4.993658	 6.788941	-5.165319	 0.784187	 3.516649	-5.225038	 0.466231	 0.424329	-0.000002	-3.783157	-0.089647	-4.769597	 4.831202	 0.201308	 89.782180	 78.203850	 179.999900	-45.229510	 28.810970	 92.229050	 20.160840	 6.796085	 13.238550	 39.146610	-27.702020	 9.387774	 6.112037	 4.509576	-0.364401	 4.968462	 1.518543	-9.347576	 5.168945	 0.703820	 2.021906
-0.000513	 0.019875	 1.268936	 0.003211	 0.003946	-0.139176	 13.070230	-2.938266	 176.363600	 1.465389	-12.572450	-0.735130	-9.213148	 70.501350	 3.340696	-2.385833	 28.452760	 0.000004	-13.164570	-3.686789	-176.185600	-1.439523	-13.512660	 0.777566	 9.045328	 70.893710	-3.315707	 2.384658	 28.388730	 0.000004	-29.659890	 2.740005	-0.058948	 1.634026	 3.643540	 0.652647	-4.913649	-4.537519	-1.076503	-91.776220	 78.527450	-180.000000	 44.292820	 32.292140	-59.593850	-36.270950	 7.726649	-13.783530	-46.155080	-21.010230	-10.386240	-2.635965	 4.993658	 6.788941	-5.165319	 0.784187	 3.516649	-5.225038	 0.466231	 0.424329	-0.000002	-3.783157	-0.089647	-4.769597	 4.831202	 0.201308	 89.782100	 78.203890	 180.000000	-41.667130	 26.616060	 95.560540	 19.206380	 7.655880	 13.897430	 37.935600	-28.144240	 8.547995	 6.112037	 4.509576	-0.364401	 4.968462	 1.518543	-9.347576	 5.168945	 0.703820	 2.021906
-0.000513	 0.019869	 1.268379	 0.003207	 0.003944	-0.139174	 13.555330	-3.221380	 176.353700	 1.458544	-13.081680	-0.765947	-9.354209	 70.727070	 3.490931	-2.385833	 28.452760	 0.000004	-13.649780	-3.955265	-176.176300	-1.432761	-13.988140	 0.806028	 9.172387	 71.105050	-3.450410	 2.384658	 28.388730	 0.000004	-28.792630	 2.740010	-0.058949	 1.634026	 3.643525	 0.652677	-4.913647	-4.537504	-1.076514	-91.776190	 78.527430	-180.000000	 44.086730	 32.099640	-59.163130	-37.515790	 8.400116	-14.232110	-47.035660	-20.706370	-10.668060	-2.635965	 4.993658	 6.788941	-5.165319	 0.784187	 3.516649	-5.225038	 0.466231	 0.424329	-0.000002	-3.783157	-0.089647	-4.769597	 4.831202	 0.201308	 89.782110	 78.203890	 180.000000	-38.256100	 24.767960	 98.087300	 18.091970	 8.313087	 14.357500	 36.665280	-28.195190	 7.677557	 6.112037	 4.509576	-0.364401	 4.968462	 1.518543	-9.347576	 5.168945	 0.703820	 2.021906
